<svg xmlns="http://www.w3.org/2000/svg" xmlns:xlink="http://www.w3.org/1999/xlink" width="600" height="400" viewBox="0 0 600 400">
  <defs>
    <clipPath id="clip-path">
      <ellipse id="Ellipse_3858" data-name="Ellipse 3858" cx="100.787" cy="100.787" rx="100.787" ry="100.787" fill="#0080ff"/>
    </clipPath>
  </defs>
  <g id="error-404" transform="translate(1969 -19195)">
    <g id="BG" transform="translate(-1969 19195)" fill="#fff" stroke="#707070" stroke-width="1" opacity="0">
      <rect width="600" height="400" stroke="none"/>
      <rect x="0.5" y="0.5" width="599" height="399" fill="none"/>
    </g>
    <g id="Group_53802" data-name="Group 53802" transform="translate(-2092.759 19243.498)">
      <g id="Group_53805" data-name="Group 53805" transform="translate(530.672 55.342)">
        <path id="Path_131418" data-name="Path 131418" d="M580.473,200.952a101.151,101.151,0,0,1,14.063-3.233,90.435,90.435,0,0,1,14.387-1.293,70.084,70.084,0,0,1,14.386,1.455,38.513,38.513,0,0,1,12.447,4.849,24.766,24.766,0,0,1,8.729,9.214q3.229,5.819,3.233,14.548v86H676.49a59.122,59.122,0,0,1,3.88,9.375,38.6,38.6,0,0,1,1.94,12.285q0,12.29-5.5,17.458a19.479,19.479,0,0,1-13.9,5.173H647.717v38.148q-3.561.645-10.667,1.778a86.838,86.838,0,0,1-13.579,1.132,109.475,109.475,0,0,1-12.608-.647,21.2,21.2,0,0,1-9.214-3.071,15.15,15.15,0,0,1-5.657-6.951q-1.94-4.523-1.94-12.285v-18.1H512.905a35.8,35.8,0,0,1-12.77-11.477q-5.334-7.593-5.334-18.589a64.229,64.229,0,0,1,1.616-13.578,35.061,35.061,0,0,1,5.5-12.932Zm16.488,50.757h-.97l-43,60.779H596.96Z" transform="translate(-494.801 -196.426)" fill="#0080ff"/>
      </g>
      <ellipse id="Ellipse_3851" data-name="Ellipse 3851" cx="155.597" cy="155.598" rx="155.597" ry="155.598" transform="translate(268.553 0)" fill="#ffe33e"/>
      <g id="Group_53814" data-name="Group 53814" transform="translate(129.759 54.996)">
        <g id="Group_53806" data-name="Group 53806" transform="translate(0 0.346)">
          <path id="Path_131419" data-name="Path 131419" d="M265.487,200.952a101.112,101.112,0,0,1,14.063-3.233,90.272,90.272,0,0,1,14.386-1.293,70.063,70.063,0,0,1,14.385,1.455,38.51,38.51,0,0,1,12.448,4.849,24.766,24.766,0,0,1,8.729,9.214q3.227,5.819,3.233,14.548v85.994H361.5a58.97,58.97,0,0,1,3.879,9.377,38.555,38.555,0,0,1,1.941,12.285q0,12.29-5.5,17.458a19.474,19.474,0,0,1-13.9,5.173H332.731v38.148q-3.561.643-10.668,1.777a86.669,86.669,0,0,1-13.579,1.133,109.465,109.465,0,0,1-12.607-.647,21.2,21.2,0,0,1-9.214-3.071A15.153,15.153,0,0,1,281,387.168q-1.938-4.525-1.938-12.285v-18.1H197.919A35.812,35.812,0,0,1,185.15,345.3q-5.334-7.593-5.336-18.589a64.144,64.144,0,0,1,1.618-13.578,35.082,35.082,0,0,1,5.495-12.932Zm16.488,50.757H281l-43,60.777h43.967Z" transform="translate(-179.814 -196.426)" fill="#0080ff"/>
        </g>
        <g id="Group_53813" data-name="Group 53813" transform="translate(193.604)">
          <ellipse id="Ellipse_3852" data-name="Ellipse 3852" cx="100.787" cy="100.787" rx="100.787" ry="100.787" fill="#0080ff"/>
        </g>
      </g>
    </g>
  </g>
</svg>
